<svg width="383" height="155" viewBox="0 0 383 155" fill="none" xmlns="http://www.w3.org/2000/svg">
<path d="M6.67393 145.278C6.67393 145.705 6.70593 146.025 6.76993 146.238C6.83393 146.451 6.96193 146.579 7.15393 146.622C7.38859 146.686 7.64459 146.729 7.92193 146.75C8.19926 146.75 8.46593 146.75 8.72193 146.75H11.7619C12.2953 146.75 12.7326 146.643 13.0739 146.43C13.4153 146.217 13.6926 145.918 13.9059 145.534C14.1406 145.086 14.3646 144.595 14.5779 144.062C14.7913 143.529 14.9939 143.006 15.1859 142.494C15.2713 142.259 15.3566 142.131 15.4419 142.11C15.5486 142.067 15.7086 142.067 15.9219 142.11C16.0499 142.153 16.1353 142.195 16.1779 142.238C16.2419 142.281 16.2846 142.334 16.3059 142.398C16.3273 142.462 16.3273 142.537 16.3059 142.622C16.3059 142.686 16.3059 142.761 16.3059 142.846C16.1779 143.721 16.0179 144.638 15.8259 145.598C15.6339 146.537 15.4313 147.422 15.2179 148.254C15.1539 148.425 15.0899 148.521 15.0259 148.542C14.9619 148.585 14.8659 148.606 14.7379 148.606C14.5459 148.606 14.1939 148.606 13.6819 148.606C13.1699 148.606 12.6046 148.595 11.9859 148.574C11.3673 148.553 10.7486 148.531 10.1299 148.51C9.51126 148.51 8.99926 148.51 8.59393 148.51C8.12459 148.51 7.48459 148.51 6.67393 148.51C5.88459 148.531 5.10593 148.553 4.33793 148.574C3.54859 148.595 2.84459 148.606 2.22593 148.606C1.60726 148.606 1.25526 148.606 1.16993 148.606C1.04193 148.606 0.924592 148.606 0.817926 148.606C0.711259 148.606 0.615259 148.595 0.529926 148.574C0.444592 148.531 0.380592 148.467 0.337926 148.382C0.295259 148.318 0.273926 148.201 0.273926 148.03C0.273926 147.902 0.284592 147.795 0.305926 147.71C0.348592 147.625 0.401926 147.561 0.465926 147.518C0.529926 147.497 0.604592 147.475 0.689926 147.454C0.796592 147.433 0.924592 147.411 1.07393 147.39C1.39393 147.369 1.69259 147.326 1.96993 147.262C2.24726 147.198 2.52459 147.102 2.80193 146.974C3.01526 146.889 3.16459 146.729 3.24993 146.494C3.35659 146.238 3.40993 145.95 3.40993 145.63V127.87C3.40993 127.422 3.34593 127.091 3.21793 126.878C3.11126 126.665 2.98326 126.526 2.83393 126.462C2.59926 126.398 2.33259 126.334 2.03393 126.27C1.75659 126.206 1.48993 126.163 1.23393 126.142C0.977926 126.142 0.785926 126.11 0.657926 126.046C0.551259 125.961 0.497926 125.769 0.497926 125.47C0.497926 125.321 0.508592 125.214 0.529926 125.15C0.572592 125.065 0.625926 125.011 0.689926 124.99C0.753926 124.947 0.839259 124.926 0.945926 124.926C1.05259 124.926 1.18059 124.926 1.32993 124.926C1.37259 124.926 1.55393 124.937 1.87393 124.958C2.19393 124.958 2.55659 124.958 2.96193 124.958C3.36726 124.979 3.76193 124.99 4.14593 124.99C4.52993 124.99 4.82859 124.99 5.04193 124.99C5.23393 124.99 5.52193 124.99 5.90593 124.99C6.28993 124.99 6.68459 124.979 7.08993 124.958C7.49526 124.958 7.85793 124.958 8.17793 124.958C8.49793 124.937 8.68993 124.926 8.75393 124.926C8.88193 124.926 8.99926 124.926 9.10593 124.926C9.21259 124.926 9.29793 124.947 9.36193 124.99C9.42593 125.011 9.47926 125.065 9.52193 125.15C9.56459 125.214 9.58593 125.321 9.58593 125.47C9.58593 125.769 9.52193 125.961 9.39393 126.046C9.28726 126.11 9.10593 126.142 8.84993 126.142C8.59393 126.163 8.31659 126.206 8.01793 126.27C7.71926 126.334 7.46326 126.398 7.24993 126.462C7.07926 126.526 6.94059 126.665 6.83393 126.878C6.72726 127.091 6.67393 127.422 6.67393 127.87V145.278Z" fill="black"/>
<path d="M21.2732 138.11C21.2732 138.217 21.2838 138.291 21.3052 138.334C21.3478 138.377 21.4225 138.398 21.5292 138.398C22.0412 138.398 22.6172 138.398 23.2572 138.398C23.8972 138.398 24.5372 138.387 25.1772 138.366C25.8172 138.345 26.4145 138.334 26.9692 138.334C27.5452 138.313 28.0145 138.281 28.3772 138.238C28.6758 138.217 28.8572 138.089 28.9212 137.854C29.0065 137.598 29.0492 137.406 29.0492 137.278C29.0492 136.403 28.7718 135.678 28.2172 135.102C27.6625 134.505 26.8732 134.206 25.8492 134.206C25.1452 134.206 24.5052 134.334 23.9292 134.59C23.3532 134.825 22.8732 135.134 22.4892 135.518C22.0838 135.902 21.7745 136.329 21.5612 136.798C21.3478 137.246 21.2518 137.683 21.2732 138.11ZM31.0012 144.542C31.1505 144.371 31.3212 144.254 31.5132 144.19C31.7052 144.105 31.8865 144.094 32.0572 144.158C32.1638 144.243 32.2172 144.361 32.2172 144.51C32.2385 144.638 32.2065 144.787 32.1212 144.958C31.6945 145.897 30.8945 146.739 29.7212 147.486C28.5692 148.254 27.1718 148.638 25.5292 148.638C24.4198 148.638 23.3852 148.446 22.4252 148.062C21.4865 147.699 20.6652 147.177 19.9612 146.494C19.2785 145.79 18.7345 144.958 18.3292 143.998C17.9452 143.038 17.7532 141.971 17.7532 140.798C17.7532 139.433 17.9985 138.227 18.4892 137.182C18.9798 136.137 19.6198 135.251 20.4092 134.526C21.1985 133.822 22.0838 133.289 23.0652 132.926C24.0678 132.563 25.0705 132.382 26.0732 132.382C27.1825 132.382 28.1212 132.553 28.8892 132.894C29.6785 133.235 30.3292 133.683 30.8412 134.238C31.3318 134.771 31.6945 135.39 31.9292 136.094C32.1638 136.777 32.2812 137.47 32.2812 138.174C32.2812 138.366 32.2705 138.569 32.2492 138.782C32.2278 138.995 32.2065 139.187 32.1852 139.358C32.1425 139.593 32.0572 139.774 31.9292 139.902C31.8225 140.03 31.6198 140.094 31.3212 140.094L21.4012 140.03C21.2945 140.03 21.2198 140.051 21.1772 140.094C21.1558 140.137 21.1558 140.222 21.1772 140.35C21.2412 141.481 21.4438 142.419 21.7852 143.166C22.1265 143.913 22.5638 144.51 23.0972 144.958C23.6092 145.427 24.1958 145.758 24.8572 145.95C25.5398 146.121 26.2652 146.206 27.0332 146.206C27.9505 146.206 28.7292 146.057 29.3692 145.758C30.0092 145.459 30.5532 145.054 31.0012 144.542Z" fill="black"/>
<path d="M45.1724 137.502C45.1724 136.371 44.9378 135.475 44.4684 134.814C43.9991 134.131 43.2524 133.79 42.2284 133.79C41.2684 133.79 40.5218 134.131 39.9884 134.814C39.4551 135.475 39.1884 136.371 39.1884 137.502C39.1884 138.59 39.4231 139.465 39.8924 140.126C40.3618 140.787 41.1404 141.118 42.2284 141.118C43.2524 141.118 43.9991 140.787 44.4684 140.126C44.9378 139.465 45.1724 138.59 45.1724 137.502ZM43.9884 146.654H40.8204C40.2018 146.654 39.6578 146.942 39.1884 147.518C38.7191 148.094 38.4844 148.745 38.4844 149.47C38.4844 150.409 38.7938 151.123 39.4124 151.614C40.0311 152.105 40.8738 152.35 41.9404 152.35C43.8604 152.35 45.2151 152.062 46.0044 151.486C46.7938 150.931 47.1884 150.142 47.1884 149.118C47.1884 148.329 46.9644 147.721 46.5164 147.294C46.0684 146.867 45.2258 146.654 43.9884 146.654ZM35.7644 144.318C35.7644 143.955 35.8818 143.635 36.1164 143.358C36.3511 143.081 36.6391 142.835 36.9804 142.622C37.3004 142.43 37.6418 142.281 38.0044 142.174C38.3671 142.046 38.6658 141.95 38.9004 141.886C38.6231 141.758 38.3031 141.587 37.9404 141.374C37.5991 141.139 37.2684 140.851 36.9484 140.51C36.6284 140.169 36.3618 139.774 36.1484 139.326C35.9351 138.878 35.8284 138.366 35.8284 137.79C35.8284 136.126 36.4151 134.814 37.5884 133.854C38.7831 132.873 40.3084 132.382 42.1644 132.382C42.8898 132.403 43.4871 132.478 43.9564 132.606C44.4258 132.734 44.9378 132.937 45.4924 133.214C45.7271 133.321 45.9724 133.406 46.2284 133.47C46.4844 133.534 46.7404 133.555 46.9964 133.534H49.6204C49.8764 133.534 50.0791 133.598 50.2284 133.726C50.3778 133.854 50.4524 134.089 50.4524 134.43C50.4524 134.793 50.3564 135.038 50.1644 135.166C49.9724 135.294 49.7804 135.358 49.5884 135.358H48.1164C47.9884 135.358 47.9244 135.379 47.9244 135.422C47.9244 135.465 47.9458 135.507 47.9884 135.55C48.0951 135.806 48.1911 136.137 48.2764 136.542C48.3831 136.947 48.4364 137.31 48.4364 137.63C48.4364 138.249 48.3298 138.846 48.1164 139.422C47.9244 139.998 47.5938 140.51 47.1244 140.958C46.6338 141.406 46.0044 141.769 45.2364 142.046C44.4684 142.302 43.5084 142.43 42.3564 142.43C41.5244 142.43 40.7778 142.526 40.1164 142.718C39.4551 142.91 39.1244 143.134 39.1244 143.39C39.1244 143.625 39.2204 143.827 39.4124 143.998C39.6044 144.147 40.2338 144.222 41.3004 144.222H44.7884C46.7084 144.222 48.0844 144.585 48.9164 145.31C49.7484 146.014 50.1644 147.006 50.1644 148.286C50.1644 149.929 49.3324 151.294 47.6684 152.382C46.0044 153.47 43.4658 154.014 40.0524 154.014C38.2178 154.014 36.9591 153.715 36.2764 153.118C35.5938 152.521 35.2524 151.646 35.2524 150.494C35.2524 149.619 35.5511 148.851 36.1484 148.19C36.7671 147.55 37.4604 146.985 38.2284 146.494C37.3964 146.302 36.7671 146.003 36.3404 145.598C35.9351 145.193 35.7431 144.766 35.7644 144.318Z" fill="black"/>
<path d="M62.0317 140.51C61.285 140.787 60.421 141.15 59.4397 141.598C58.4583 142.025 57.6797 142.473 57.1037 142.942C56.9117 143.091 56.7623 143.337 56.6557 143.678C56.549 143.998 56.4957 144.35 56.4957 144.734C56.4957 145.374 56.645 145.854 56.9437 146.174C57.2637 146.494 57.7543 146.654 58.4157 146.654C59.1197 146.654 59.8237 146.441 60.5277 146.014C61.253 145.566 61.797 145.171 62.1597 144.83C62.2663 144.745 62.3303 144.659 62.3517 144.574C62.3943 144.467 62.4157 144.286 62.4157 144.03V140.83C62.4157 140.681 62.3837 140.585 62.3197 140.542C62.2557 140.478 62.1597 140.467 62.0317 140.51ZM54.8317 142.142C55.173 141.929 55.621 141.694 56.1757 141.438C56.7517 141.182 57.3597 140.915 57.9997 140.638C58.661 140.361 59.333 140.094 60.0157 139.838C60.6983 139.582 61.3597 139.337 61.9997 139.102C62.1277 139.059 62.2237 138.995 62.2877 138.91C62.373 138.825 62.4157 138.665 62.4157 138.43V136.318C62.4157 135.55 62.181 134.995 61.7117 134.654C61.2423 134.313 60.6237 134.142 59.8557 134.142C58.7677 134.142 57.9677 134.441 57.4557 135.038C56.965 135.635 56.7197 136.254 56.7197 136.894C56.7837 137.363 56.6557 137.715 56.3357 137.95C56.0157 138.163 55.5997 138.345 55.0877 138.494C54.405 138.686 53.9037 138.718 53.5837 138.59C53.2637 138.441 53.1037 138.185 53.1037 137.822C53.0823 137.353 53.157 136.873 53.3277 136.382C53.4983 135.87 53.765 135.422 54.1277 135.038C54.917 134.227 56.005 133.598 57.3917 133.15C58.7783 132.681 60.1757 132.446 61.5837 132.446C62.9277 132.446 63.9303 132.745 64.5917 133.342C65.253 133.939 65.5837 134.782 65.5837 135.87V144.478C65.5837 145.011 65.637 145.438 65.7437 145.758C65.8503 146.078 66.1277 146.238 66.5757 146.238C66.7463 146.238 66.9277 146.217 67.1197 146.174C67.3117 146.11 67.5037 145.95 67.6957 145.694C67.8877 145.417 68.0903 145.331 68.3037 145.438C68.5383 145.545 68.6237 145.79 68.5597 146.174C68.4103 146.771 68.0477 147.358 67.4717 147.934C66.917 148.51 66.181 148.798 65.2637 148.798C64.4103 148.798 63.7917 148.542 63.4077 148.03C63.0237 147.539 62.7677 147.027 62.6397 146.494C62.6183 146.409 62.5757 146.366 62.5117 146.366C62.469 146.345 62.4157 146.366 62.3517 146.43C61.6263 146.963 60.7623 147.518 59.7597 148.094C58.7783 148.67 57.733 148.958 56.6237 148.958C55.4077 148.958 54.4797 148.659 53.8397 148.062C53.1997 147.465 52.8797 146.654 52.8797 145.63C52.8797 144.926 53.0503 144.275 53.3917 143.678C53.7543 143.059 54.2343 142.547 54.8317 142.142Z" fill="black"/>
<path d="M75.2994 145.726C75.3208 146.195 75.3741 146.537 75.4594 146.75C75.5448 146.942 75.6514 147.07 75.7794 147.134C75.9714 147.219 76.1634 147.283 76.3554 147.326C76.5688 147.369 76.7821 147.39 76.9954 147.39C77.2088 147.411 77.3794 147.454 77.5074 147.518C77.6354 147.582 77.6994 147.753 77.6994 148.03C77.6994 148.201 77.6781 148.318 77.6354 148.382C77.6141 148.467 77.5714 148.521 77.5074 148.542C77.4434 148.585 77.3581 148.595 77.2514 148.574C77.1661 148.574 77.0701 148.574 76.9634 148.574C76.8994 148.574 76.7181 148.574 76.4194 148.574C76.1421 148.574 75.8221 148.563 75.4594 148.542C75.0968 148.542 74.7448 148.531 74.4034 148.51C74.0621 148.51 73.8168 148.51 73.6674 148.51C73.4754 148.51 73.1981 148.51 72.8354 148.51C72.4941 148.531 72.1421 148.542 71.7794 148.542C71.3954 148.563 71.0541 148.574 70.7554 148.574C70.4781 148.574 70.3181 148.574 70.2754 148.574C70.1474 148.574 70.0408 148.574 69.9554 148.574C69.8701 148.595 69.7954 148.585 69.7314 148.542C69.6674 148.521 69.6248 148.467 69.6034 148.382C69.5821 148.318 69.5714 148.201 69.5714 148.03C69.5714 147.753 69.6248 147.582 69.7314 147.518C69.8594 147.454 70.0408 147.411 70.2754 147.39C70.4674 147.39 70.6914 147.369 70.9474 147.326C71.2034 147.283 71.4274 147.219 71.6194 147.134C71.7474 147.07 71.8648 146.942 71.9714 146.75C72.0994 146.537 72.1634 146.195 72.1634 145.726V126.11C72.1634 125.854 72.0461 125.683 71.8114 125.598C71.5768 125.491 71.2781 125.406 70.9154 125.342C70.7661 125.342 70.6381 125.331 70.5314 125.31C70.4461 125.289 70.3714 125.267 70.3074 125.246C70.2434 125.203 70.1901 125.161 70.1474 125.118C70.1261 125.054 70.1154 124.958 70.1154 124.83C70.1154 124.745 70.1261 124.67 70.1474 124.606C70.1688 124.542 70.2114 124.489 70.2754 124.446C70.3181 124.403 70.3821 124.371 70.4674 124.35C70.5741 124.307 70.6914 124.265 70.8194 124.222C71.4168 124.051 72.0888 123.827 72.8354 123.55C73.5821 123.251 74.2434 122.953 74.8194 122.654C75.0114 122.547 75.1608 122.547 75.2674 122.654C75.3954 122.739 75.4594 122.857 75.4594 123.006C75.3954 123.518 75.3528 124.051 75.3314 124.606C75.3101 125.139 75.2994 125.662 75.2994 126.174V145.726Z" fill="black"/>
<path d="M288.614 146.75C289.062 146.75 289.521 146.675 289.99 146.526C290.459 146.355 290.886 146.11 291.27 145.79C291.654 145.47 291.974 145.097 292.23 144.67C292.486 144.222 292.625 143.721 292.646 143.166C292.646 142.483 292.497 141.875 292.198 141.342C291.899 140.787 291.505 140.286 291.014 139.838C290.545 139.411 290.011 139.027 289.414 138.686C288.817 138.345 288.23 138.025 287.654 137.726V137.758C286.779 137.353 286.001 136.958 285.318 136.574C284.635 136.19 284.059 135.763 283.59 135.294C283.121 134.825 282.758 134.291 282.502 133.694C282.267 133.075 282.15 132.329 282.15 131.454C282.15 129.534 282.779 127.955 284.038 126.718C285.297 125.481 287.121 124.862 289.51 124.862C290.406 124.926 291.206 125.033 291.91 125.182C292.614 125.331 293.329 125.555 294.054 125.854C294.203 125.918 294.31 125.993 294.374 126.078C294.459 126.163 294.513 126.27 294.534 126.398C294.598 126.782 294.641 127.155 294.662 127.518C294.705 127.859 294.747 128.19 294.79 128.51C294.811 128.851 294.833 129.193 294.854 129.534C294.875 129.875 294.907 130.227 294.95 130.59C294.95 130.782 294.918 130.931 294.854 131.038C294.811 131.145 294.662 131.209 294.406 131.23C294.171 131.273 294.011 131.273 293.926 131.23C293.841 131.166 293.766 131.006 293.702 130.75C293.574 130.302 293.371 129.779 293.094 129.182C292.817 128.585 292.518 128.126 292.198 127.806C291.814 127.422 291.355 127.145 290.822 126.974C290.31 126.782 289.734 126.686 289.094 126.686C287.75 126.686 286.758 127.006 286.118 127.646C285.499 128.265 285.19 128.958 285.19 129.726C285.19 130.387 285.307 130.953 285.542 131.422C285.798 131.891 286.15 132.307 286.598 132.67C287.046 133.054 287.569 133.395 288.166 133.694C288.763 133.993 289.414 134.302 290.118 134.622C290.779 134.963 291.441 135.326 292.102 135.71C292.785 136.094 293.393 136.542 293.926 137.054C294.459 137.566 294.897 138.153 295.238 138.814C295.579 139.475 295.75 140.254 295.75 141.15C295.75 143.454 295.057 145.299 293.67 146.686C292.305 148.051 290.449 148.734 288.102 148.734C286.779 148.734 285.627 148.574 284.646 148.254C283.686 147.934 282.811 147.486 282.022 146.91C281.894 146.846 281.798 146.771 281.734 146.686C281.67 146.579 281.638 146.451 281.638 146.302C281.51 145.555 281.414 144.841 281.35 144.158C281.286 143.454 281.254 142.718 281.254 141.95C281.254 141.758 281.286 141.619 281.35 141.534C281.414 141.427 281.585 141.374 281.862 141.374C282.097 141.374 282.246 141.406 282.31 141.47C282.395 141.534 282.47 141.694 282.534 141.95C282.598 142.419 282.726 142.942 282.918 143.518C283.131 144.073 283.377 144.542 283.654 144.926C283.995 145.438 284.603 145.875 285.478 146.238C286.353 146.579 287.398 146.75 288.614 146.75Z" fill="black"/>
<path d="M307.469 140.51C306.723 140.787 305.859 141.15 304.877 141.598C303.896 142.025 303.117 142.473 302.541 142.942C302.349 143.091 302.2 143.337 302.093 143.678C301.987 143.998 301.933 144.35 301.933 144.734C301.933 145.374 302.082 145.854 302.381 146.174C302.701 146.494 303.192 146.654 303.853 146.654C304.557 146.654 305.261 146.441 305.965 146.014C306.691 145.566 307.235 145.171 307.597 144.83C307.704 144.745 307.768 144.659 307.789 144.574C307.832 144.467 307.853 144.286 307.853 144.03V140.83C307.853 140.681 307.821 140.585 307.757 140.542C307.693 140.478 307.597 140.467 307.469 140.51ZM300.269 142.142C300.61 141.929 301.059 141.694 301.613 141.438C302.189 141.182 302.797 140.915 303.437 140.638C304.098 140.361 304.771 140.094 305.453 139.838C306.136 139.582 306.797 139.337 307.437 139.102C307.565 139.059 307.661 138.995 307.725 138.91C307.811 138.825 307.853 138.665 307.853 138.43V136.318C307.853 135.55 307.619 134.995 307.149 134.654C306.68 134.313 306.061 134.142 305.293 134.142C304.205 134.142 303.405 134.441 302.893 135.038C302.403 135.635 302.157 136.254 302.157 136.894C302.221 137.363 302.093 137.715 301.773 137.95C301.453 138.163 301.037 138.345 300.525 138.494C299.843 138.686 299.341 138.718 299.021 138.59C298.701 138.441 298.541 138.185 298.541 137.822C298.52 137.353 298.595 136.873 298.765 136.382C298.936 135.87 299.203 135.422 299.565 135.038C300.355 134.227 301.442 133.598 302.829 133.15C304.216 132.681 305.613 132.446 307.021 132.446C308.365 132.446 309.368 132.745 310.029 133.342C310.691 133.939 311.021 134.782 311.021 135.87V144.478C311.021 145.011 311.075 145.438 311.181 145.758C311.288 146.078 311.565 146.238 312.013 146.238C312.184 146.238 312.365 146.217 312.557 146.174C312.749 146.11 312.941 145.95 313.133 145.694C313.325 145.417 313.528 145.331 313.741 145.438C313.976 145.545 314.061 145.79 313.997 146.174C313.848 146.771 313.485 147.358 312.909 147.934C312.355 148.51 311.619 148.798 310.701 148.798C309.848 148.798 309.229 148.542 308.845 148.03C308.461 147.539 308.205 147.027 308.077 146.494C308.056 146.409 308.013 146.366 307.949 146.366C307.907 146.345 307.853 146.366 307.789 146.43C307.064 146.963 306.2 147.518 305.197 148.094C304.216 148.67 303.171 148.958 302.061 148.958C300.845 148.958 299.917 148.659 299.277 148.062C298.637 147.465 298.317 146.654 298.317 145.63C298.317 144.926 298.488 144.275 298.829 143.678C299.192 143.059 299.672 142.547 300.269 142.142Z" fill="black"/>
<path d="M317.121 125.342C316.972 125.342 316.844 125.331 316.737 125.31C316.652 125.289 316.577 125.267 316.513 125.246C316.449 125.203 316.396 125.161 316.353 125.118C316.332 125.054 316.321 124.958 316.321 124.83C316.321 124.745 316.332 124.67 316.353 124.606C316.374 124.542 316.417 124.489 316.481 124.446C316.524 124.403 316.588 124.371 316.673 124.35C316.78 124.307 316.897 124.265 317.025 124.222C317.622 124.051 318.294 123.827 319.041 123.55C319.788 123.251 320.449 122.953 321.025 122.654C321.217 122.547 321.366 122.547 321.473 122.654C321.601 122.739 321.665 122.857 321.665 123.006C321.601 123.518 321.558 124.051 321.537 124.606C321.516 125.139 321.505 125.662 321.505 126.174V134.526C322.124 133.843 322.828 133.331 323.617 132.99C324.406 132.649 325.228 132.478 326.081 132.478C327.724 132.478 329.046 132.915 330.049 133.79C331.052 134.643 331.553 135.881 331.553 137.502V145.726C331.553 146.195 331.606 146.537 331.713 146.75C331.841 146.942 331.969 147.07 332.097 147.134C332.289 147.219 332.502 147.283 332.737 147.326C332.993 147.369 333.228 147.39 333.441 147.39C333.654 147.411 333.825 147.454 333.953 147.518C334.081 147.582 334.145 147.753 334.145 148.03C334.145 148.201 334.124 148.318 334.081 148.382C334.06 148.467 334.017 148.521 333.953 148.542C333.889 148.585 333.814 148.595 333.729 148.574C333.644 148.574 333.548 148.574 333.441 148.574C333.377 148.574 333.196 148.574 332.897 148.574C332.62 148.574 332.3 148.563 331.937 148.542C331.553 148.542 331.18 148.531 330.817 148.51C330.476 148.51 330.22 148.51 330.049 148.51C329.878 148.51 329.622 148.51 329.281 148.51C328.94 148.531 328.588 148.542 328.225 148.542C327.884 148.563 327.564 148.574 327.265 148.574C326.988 148.574 326.828 148.574 326.785 148.574C326.657 148.574 326.54 148.574 326.433 148.574C326.348 148.595 326.273 148.585 326.209 148.542C326.145 148.521 326.102 148.467 326.081 148.382C326.06 148.318 326.049 148.201 326.049 148.03C326.049 147.753 326.102 147.582 326.209 147.518C326.337 147.454 326.518 147.411 326.753 147.39C326.945 147.39 327.148 147.369 327.361 147.326C327.574 147.283 327.777 147.219 327.969 147.134C328.097 147.07 328.193 146.942 328.257 146.75C328.342 146.537 328.385 146.195 328.385 145.726V138.238C328.385 136.958 328.108 136.041 327.553 135.486C327.02 134.91 326.188 134.622 325.057 134.622C324.353 134.622 323.713 134.761 323.137 135.038C322.561 135.315 322.102 135.731 321.761 136.286C321.697 136.393 321.633 136.553 321.569 136.766C321.505 136.958 321.473 137.129 321.473 137.278V145.726C321.494 146.195 321.548 146.537 321.633 146.75C321.718 146.942 321.825 147.07 321.953 147.134C322.145 147.219 322.337 147.283 322.529 147.326C322.742 147.369 322.956 147.39 323.169 147.39C323.382 147.411 323.553 147.454 323.681 147.518C323.809 147.582 323.873 147.753 323.873 148.03C323.873 148.201 323.852 148.318 323.809 148.382C323.788 148.467 323.745 148.521 323.681 148.542C323.617 148.585 323.532 148.595 323.425 148.574C323.34 148.574 323.244 148.574 323.137 148.574C323.073 148.574 322.892 148.574 322.593 148.574C322.316 148.574 322.006 148.563 321.665 148.542C321.302 148.542 320.95 148.531 320.609 148.51C320.268 148.51 320.022 148.51 319.873 148.51C319.681 148.51 319.404 148.51 319.041 148.51C318.7 148.531 318.348 148.542 317.985 148.542C317.601 148.563 317.26 148.574 316.961 148.574C316.684 148.574 316.524 148.574 316.481 148.574C316.353 148.574 316.246 148.574 316.161 148.574C316.076 148.595 316.001 148.585 315.937 148.542C315.873 148.521 315.83 148.467 315.809 148.382C315.788 148.318 315.777 148.201 315.777 148.03C315.777 147.753 315.83 147.582 315.937 147.518C316.065 147.454 316.246 147.411 316.481 147.39C316.673 147.39 316.897 147.369 317.153 147.326C317.409 147.283 317.633 147.219 317.825 147.134C317.953 147.07 318.07 146.942 318.177 146.75C318.305 146.537 318.369 146.195 318.369 145.726V126.11C318.369 125.854 318.252 125.683 318.017 125.598C317.782 125.491 317.484 125.406 317.121 125.342Z" fill="black"/>
<path d="M345.282 140.51C344.535 140.787 343.671 141.15 342.69 141.598C341.708 142.025 340.93 142.473 340.354 142.942C340.162 143.091 340.012 143.337 339.906 143.678C339.799 143.998 339.746 144.35 339.746 144.734C339.746 145.374 339.895 145.854 340.194 146.174C340.514 146.494 341.004 146.654 341.666 146.654C342.37 146.654 343.074 146.441 343.778 146.014C344.503 145.566 345.047 145.171 345.41 144.83C345.516 144.745 345.58 144.659 345.602 144.574C345.644 144.467 345.666 144.286 345.666 144.03V140.83C345.666 140.681 345.634 140.585 345.57 140.542C345.506 140.478 345.41 140.467 345.282 140.51ZM338.082 142.142C338.423 141.929 338.871 141.694 339.426 141.438C340.002 141.182 340.61 140.915 341.25 140.638C341.911 140.361 342.583 140.094 343.266 139.838C343.948 139.582 344.61 139.337 345.25 139.102C345.378 139.059 345.474 138.995 345.538 138.91C345.623 138.825 345.666 138.665 345.666 138.43V136.318C345.666 135.55 345.431 134.995 344.962 134.654C344.492 134.313 343.874 134.142 343.106 134.142C342.018 134.142 341.218 134.441 340.706 135.038C340.215 135.635 339.97 136.254 339.97 136.894C340.034 137.363 339.906 137.715 339.586 137.95C339.266 138.163 338.85 138.345 338.338 138.494C337.655 138.686 337.154 138.718 336.834 138.59C336.514 138.441 336.354 138.185 336.354 137.822C336.332 137.353 336.407 136.873 336.578 136.382C336.748 135.87 337.015 135.422 337.378 135.038C338.167 134.227 339.255 133.598 340.642 133.15C342.028 132.681 343.426 132.446 344.834 132.446C346.178 132.446 347.18 132.745 347.842 133.342C348.503 133.939 348.834 134.782 348.834 135.87V144.478C348.834 145.011 348.887 145.438 348.994 145.758C349.1 146.078 349.378 146.238 349.826 146.238C349.996 146.238 350.178 146.217 350.37 146.174C350.562 146.11 350.754 145.95 350.946 145.694C351.138 145.417 351.34 145.331 351.554 145.438C351.788 145.545 351.874 145.79 351.81 146.174C351.66 146.771 351.298 147.358 350.722 147.934C350.167 148.51 349.431 148.798 348.514 148.798C347.66 148.798 347.042 148.542 346.658 148.03C346.274 147.539 346.018 147.027 345.89 146.494C345.868 146.409 345.826 146.366 345.762 146.366C345.719 146.345 345.666 146.366 345.602 146.43C344.876 146.963 344.012 147.518 343.01 148.094C342.028 148.67 340.983 148.958 339.874 148.958C338.658 148.958 337.73 148.659 337.09 148.062C336.45 147.465 336.13 146.654 336.13 145.63C336.13 144.926 336.3 144.275 336.642 143.678C337.004 143.059 337.484 142.547 338.082 142.142Z" fill="black"/>
<path d="M358.901 134.654C359.349 134.27 359.968 133.854 360.757 133.406C361.547 132.937 362.357 132.702 363.189 132.702C363.936 132.702 364.459 132.862 364.757 133.182C365.077 133.481 365.248 133.95 365.269 134.59C365.248 135.251 365.035 135.731 364.629 136.03C364.224 136.329 363.701 136.478 363.061 136.478C362.741 136.478 362.464 136.425 362.229 136.318C361.995 136.211 361.792 136.094 361.621 135.966C361.429 135.838 361.216 135.731 360.981 135.646C360.747 135.561 360.501 135.518 360.245 135.518C359.776 135.582 359.424 135.817 359.189 136.222C358.976 136.606 358.869 137.033 358.869 137.502V145.79C358.891 146.259 358.944 146.59 359.029 146.782C359.115 146.995 359.221 147.134 359.349 147.198C359.541 147.283 359.733 147.347 359.925 147.39C360.139 147.433 360.352 147.454 360.565 147.454C360.779 147.475 360.949 147.518 361.077 147.582C361.205 147.646 361.269 147.817 361.269 148.094C361.269 148.265 361.248 148.382 361.205 148.446C361.184 148.531 361.141 148.585 361.077 148.606C361.013 148.649 360.928 148.659 360.821 148.638C360.736 148.638 360.64 148.638 360.533 148.638C360.469 148.638 360.288 148.638 359.989 148.638C359.712 148.638 359.403 148.627 359.061 148.606C358.699 148.606 358.347 148.595 358.005 148.574C357.664 148.574 357.419 148.574 357.269 148.574C357.077 148.574 356.8 148.574 356.437 148.574C356.096 148.595 355.744 148.606 355.381 148.606C354.997 148.627 354.656 148.638 354.357 148.638C354.08 148.638 353.92 148.638 353.877 148.638C353.749 148.638 353.643 148.638 353.557 148.638C353.472 148.659 353.397 148.649 353.333 148.606C353.269 148.585 353.227 148.531 353.205 148.446C353.184 148.382 353.173 148.265 353.173 148.094C353.173 147.817 353.227 147.646 353.333 147.582C353.461 147.518 353.643 147.475 353.877 147.454C354.069 147.454 354.293 147.433 354.549 147.39C354.805 147.347 355.029 147.283 355.221 147.198C355.349 147.134 355.467 146.995 355.573 146.782C355.701 146.59 355.765 146.259 355.765 145.79V136.126C355.744 135.87 355.616 135.699 355.381 135.614C355.147 135.507 354.848 135.422 354.485 135.358C354.336 135.358 354.208 135.347 354.101 135.326C354.016 135.305 353.941 135.283 353.877 135.262C353.813 135.219 353.76 135.177 353.717 135.134C353.696 135.07 353.685 134.974 353.685 134.846C353.685 134.761 353.696 134.686 353.717 134.622C353.739 134.558 353.781 134.505 353.845 134.462C353.888 134.419 353.952 134.387 354.037 134.366C354.144 134.323 354.261 134.281 354.389 134.238C354.987 134.067 355.659 133.843 356.405 133.566C357.152 133.267 357.813 132.969 358.389 132.67C358.581 132.563 358.731 132.563 358.837 132.67C358.965 132.755 359.029 132.873 359.029 133.022C358.987 133.342 358.955 133.619 358.933 133.854C358.912 134.067 358.901 134.334 358.901 134.654Z" fill="black"/>
<path d="M376.125 140.51C375.379 140.787 374.515 141.15 373.533 141.598C372.552 142.025 371.773 142.473 371.197 142.942C371.005 143.091 370.856 143.337 370.749 143.678C370.643 143.998 370.589 144.35 370.589 144.734C370.589 145.374 370.739 145.854 371.037 146.174C371.357 146.494 371.848 146.654 372.509 146.654C373.213 146.654 373.917 146.441 374.621 146.014C375.347 145.566 375.891 145.171 376.253 144.83C376.36 144.745 376.424 144.659 376.445 144.574C376.488 144.467 376.509 144.286 376.509 144.03V140.83C376.509 140.681 376.477 140.585 376.413 140.542C376.349 140.478 376.253 140.467 376.125 140.51ZM368.925 142.142C369.267 141.929 369.715 141.694 370.269 141.438C370.845 141.182 371.453 140.915 372.093 140.638C372.755 140.361 373.427 140.094 374.109 139.838C374.792 139.582 375.453 139.337 376.093 139.102C376.221 139.059 376.317 138.995 376.381 138.91C376.467 138.825 376.509 138.665 376.509 138.43V136.318C376.509 135.55 376.275 134.995 375.805 134.654C375.336 134.313 374.717 134.142 373.949 134.142C372.861 134.142 372.061 134.441 371.549 135.038C371.059 135.635 370.813 136.254 370.813 136.894C370.877 137.363 370.749 137.715 370.429 137.95C370.109 138.163 369.693 138.345 369.181 138.494C368.499 138.686 367.997 138.718 367.677 138.59C367.357 138.441 367.197 138.185 367.197 137.822C367.176 137.353 367.251 136.873 367.421 136.382C367.592 135.87 367.859 135.422 368.221 135.038C369.011 134.227 370.099 133.598 371.485 133.15C372.872 132.681 374.269 132.446 375.677 132.446C377.021 132.446 378.024 132.745 378.685 133.342C379.347 133.939 379.677 134.782 379.677 135.87V144.478C379.677 145.011 379.731 145.438 379.837 145.758C379.944 146.078 380.221 146.238 380.669 146.238C380.84 146.238 381.021 146.217 381.213 146.174C381.405 146.11 381.597 145.95 381.789 145.694C381.981 145.417 382.184 145.331 382.397 145.438C382.632 145.545 382.717 145.79 382.653 146.174C382.504 146.771 382.141 147.358 381.565 147.934C381.011 148.51 380.275 148.798 379.357 148.798C378.504 148.798 377.885 148.542 377.501 148.03C377.117 147.539 376.861 147.027 376.733 146.494C376.712 146.409 376.669 146.366 376.605 146.366C376.563 146.345 376.509 146.366 376.445 146.43C375.72 146.963 374.856 147.518 373.853 148.094C372.872 148.67 371.827 148.958 370.717 148.958C369.501 148.958 368.573 148.659 367.933 148.062C367.293 147.465 366.973 146.654 366.973 145.63C366.973 144.926 367.144 144.275 367.485 143.678C367.848 143.059 368.328 142.547 368.925 142.142Z" fill="black"/>
<path d="M185.014 6.46042V19.7847H200.053C202.726 19.7847 205.338 20.5918 207.547 22.0917L220.469 30.8782C220.781 31.0914 221.154 31.2056 221.535 31.2056H252.772C254.286 31.2056 255.739 31.8072 256.81 32.8781C257.881 33.949 258.483 35.4015 258.483 36.916C258.483 38.4305 257.881 39.883 256.81 40.9539C255.739 42.0248 254.286 42.6264 252.772 42.6264H240.755L266.387 101.101C266.901 102.27 267.008 103.578 266.69 104.815C266.373 106.052 265.649 107.146 264.636 107.923C263.874 108.487 263.09 109.012 262.275 109.492C260.343 110.644 258.333 111.659 256.259 112.53C249.371 115.41 241.977 116.883 234.511 116.862C227.048 116.885 219.656 115.415 212.77 112.537C210.695 111.667 208.685 110.649 206.755 109.492C205.947 109.024 205.166 108.511 204.417 107.954L204.379 107.923C203.365 107.146 202.641 106.052 202.324 104.815C202.006 103.578 202.113 102.27 202.627 101.101L228.274 42.6264H221.528C218.855 42.6264 216.243 41.8194 214.034 40.3194L201.112 31.533C200.798 31.3182 200.426 31.204 200.046 31.2056H185.014V141.607H219.182C220.697 141.607 222.15 142.209 223.221 143.28C224.292 144.351 224.893 145.803 224.893 147.317C224.893 148.832 224.292 150.284 223.221 151.355C222.15 152.426 220.697 153.028 219.182 153.028H139.424C137.909 153.028 136.456 152.426 135.385 151.355C134.314 150.284 133.712 148.832 133.712 147.317C133.712 145.803 134.314 144.351 135.385 143.28C136.456 142.209 137.909 141.607 139.424 141.607H173.592V31.2056H158.552C158.172 31.2054 157.801 31.3195 157.486 31.533L144.571 40.3194C142.363 41.8194 139.751 42.6264 137.078 42.6264H130.331L155.978 101.101C156.475 102.237 156.588 103.504 156.301 104.71C156.014 105.916 155.342 106.996 154.387 107.786C153.778 108.281 153.168 108.745 152.026 109.484C150.1 110.731 148.084 111.833 145.995 112.781C139.118 115.905 131.649 117.515 124.095 117.501C116.54 117.517 109.071 115.907 102.194 112.781C100.105 111.833 98.089 110.731 96.1632 109.484C95.3488 108.966 94.5633 108.405 93.8102 107.801C92.8627 107.002 92.1963 105.92 91.9085 104.714C91.6207 103.508 91.7267 102.242 92.211 101.101L117.85 42.6264H105.842C104.327 42.6264 102.874 42.0248 101.803 40.9539C100.732 39.883 100.131 38.4305 100.131 36.916C100.131 35.4015 100.732 33.949 101.803 32.8781C102.874 31.8072 104.327 31.2056 105.842 31.2056H137.078C137.459 31.2056 137.832 31.0914 138.152 30.8782L151.059 22.0917C153.267 20.5842 155.887 19.7847 158.56 19.7847H173.592V6.46042C173.592 4.94592 174.193 3.49345 175.264 2.42254C176.335 1.35163 177.788 0.75 179.303 0.75C180.818 0.75 182.27 1.35163 183.341 2.42254C184.412 3.49345 185.014 4.94592 185.014 6.46042ZM104.623 101.238C110.617 104.428 117.305 106.089 124.095 106.073C130.884 106.089 137.573 104.428 143.566 101.238L124.095 56.8492L104.623 101.238ZM215.116 101.055C215.74 101.36 216.441 101.687 217.21 102.015C221.246 103.713 227.147 105.441 234.511 105.441C241.224 105.46 247.854 103.961 253.906 101.055L234.511 56.8416L215.116 101.055Z" fill="#E4A951"/>
</svg>
