<svg width="1337" height="1337" viewBox="0 0 1337 1337" fill="none" xmlns="http://www.w3.org/2000/svg">
<path d="M328.848 806.056C328.848 806.909 328.912 807.549 329.04 807.976C329.168 808.403 329.424 808.659 329.808 808.744C330.277 808.872 330.789 808.957 331.344 809C331.899 809 332.432 809 332.944 809H339.024C340.091 809 340.965 808.787 341.648 808.36C342.331 807.933 342.885 807.336 343.312 806.568C343.781 805.672 344.229 804.691 344.656 803.624C345.083 802.557 345.488 801.512 345.872 800.488C346.043 800.019 346.213 799.763 346.384 799.72C346.597 799.635 346.917 799.635 347.344 799.72C347.6 799.805 347.771 799.891 347.856 799.976C347.984 800.061 348.069 800.168 348.112 800.296C348.155 800.424 348.155 800.573 348.112 800.744C348.112 800.872 348.112 801.021 348.112 801.192C347.856 802.941 347.536 804.776 347.152 806.696C346.768 808.573 346.363 810.344 345.936 812.008C345.808 812.349 345.68 812.541 345.552 812.584C345.424 812.669 345.232 812.712 344.976 812.712C344.592 812.712 343.888 812.712 342.864 812.712C341.84 812.712 340.709 812.691 339.472 812.648C338.235 812.605 336.997 812.563 335.76 812.52C334.523 812.52 333.499 812.52 332.688 812.52C331.749 812.52 330.469 812.52 328.848 812.52C327.269 812.563 325.712 812.605 324.176 812.648C322.597 812.691 321.189 812.712 319.952 812.712C318.715 812.712 318.011 812.712 317.84 812.712C317.584 812.712 317.349 812.712 317.136 812.712C316.923 812.712 316.731 812.691 316.56 812.648C316.389 812.563 316.261 812.435 316.176 812.264C316.091 812.136 316.048 811.901 316.048 811.56C316.048 811.304 316.069 811.091 316.112 810.92C316.197 810.749 316.304 810.621 316.432 810.536C316.56 810.493 316.709 810.451 316.88 810.408C317.093 810.365 317.349 810.323 317.648 810.28C318.288 810.237 318.885 810.152 319.44 810.024C319.995 809.896 320.549 809.704 321.104 809.448C321.531 809.277 321.829 808.957 322 808.488C322.213 807.976 322.32 807.4 322.32 806.76V771.24C322.32 770.344 322.192 769.683 321.936 769.256C321.723 768.829 321.467 768.552 321.168 768.424C320.699 768.296 320.165 768.168 319.568 768.04C319.013 767.912 318.48 767.827 317.968 767.784C317.456 767.784 317.072 767.72 316.816 767.592C316.603 767.421 316.496 767.037 316.496 766.44C316.496 766.141 316.517 765.928 316.56 765.8C316.645 765.629 316.752 765.523 316.88 765.48C317.008 765.395 317.179 765.352 317.392 765.352C317.605 765.352 317.861 765.352 318.16 765.352C318.245 765.352 318.608 765.373 319.248 765.416C319.888 765.416 320.613 765.416 321.424 765.416C322.235 765.459 323.024 765.48 323.792 765.48C324.56 765.48 325.157 765.48 325.584 765.48C325.968 765.48 326.544 765.48 327.312 765.48C328.08 765.48 328.869 765.459 329.68 765.416C330.491 765.416 331.216 765.416 331.856 765.416C332.496 765.373 332.88 765.352 333.008 765.352C333.264 765.352 333.499 765.352 333.712 765.352C333.925 765.352 334.096 765.395 334.224 765.48C334.352 765.523 334.459 765.629 334.544 765.8C334.629 765.928 334.672 766.141 334.672 766.44C334.672 767.037 334.544 767.421 334.288 767.592C334.075 767.72 333.712 767.784 333.2 767.784C332.688 767.827 332.133 767.912 331.536 768.04C330.939 768.168 330.427 768.296 330 768.424C329.659 768.552 329.381 768.829 329.168 769.256C328.955 769.683 328.848 770.344 328.848 771.24V806.056Z" fill="black"/>
<path d="M358.046 791.72C358.046 791.933 358.068 792.083 358.11 792.168C358.196 792.253 358.345 792.296 358.558 792.296C359.582 792.296 360.734 792.296 362.014 792.296C363.294 792.296 364.574 792.275 365.854 792.232C367.134 792.189 368.329 792.168 369.438 792.168C370.59 792.125 371.529 792.061 372.254 791.976C372.852 791.933 373.214 791.677 373.342 791.208C373.513 790.696 373.598 790.312 373.598 790.056C373.598 788.307 373.044 786.856 371.934 785.704C370.825 784.509 369.246 783.912 367.198 783.912C365.79 783.912 364.51 784.168 363.358 784.68C362.206 785.149 361.246 785.768 360.478 786.536C359.668 787.304 359.049 788.157 358.622 789.096C358.196 789.992 358.004 790.867 358.046 791.72ZM377.502 804.584C377.801 804.243 378.142 804.008 378.526 803.88C378.91 803.709 379.273 803.688 379.614 803.816C379.828 803.987 379.934 804.221 379.934 804.52C379.977 804.776 379.913 805.075 379.742 805.416C378.889 807.293 377.289 808.979 374.942 810.472C372.638 812.008 369.844 812.776 366.558 812.776C364.34 812.776 362.27 812.392 360.35 811.624C358.473 810.899 356.83 809.853 355.422 808.488C354.057 807.08 352.969 805.416 352.158 803.496C351.39 801.576 351.006 799.443 351.006 797.096C351.006 794.365 351.497 791.955 352.478 789.864C353.46 787.773 354.74 786.003 356.318 784.552C357.897 783.144 359.668 782.077 361.63 781.352C363.636 780.627 365.641 780.264 367.646 780.264C369.865 780.264 371.742 780.605 373.278 781.288C374.857 781.971 376.158 782.867 377.182 783.976C378.164 785.043 378.889 786.28 379.358 787.688C379.828 789.053 380.062 790.44 380.062 791.848C380.062 792.232 380.041 792.637 379.998 793.064C379.956 793.491 379.913 793.875 379.87 794.216C379.785 794.685 379.614 795.048 379.358 795.304C379.145 795.56 378.74 795.688 378.142 795.688L358.302 795.56C358.089 795.56 357.94 795.603 357.854 795.688C357.812 795.773 357.812 795.944 357.854 796.2C357.982 798.461 358.388 800.339 359.07 801.832C359.753 803.325 360.628 804.52 361.694 805.416C362.718 806.355 363.892 807.016 365.214 807.4C366.58 807.741 368.03 807.912 369.566 807.912C371.401 807.912 372.958 807.613 374.238 807.016C375.518 806.419 376.606 805.608 377.502 804.584Z" fill="black"/>
<path d="M405.845 790.504C405.845 788.243 405.376 786.451 404.437 785.128C403.498 783.763 402.005 783.08 399.957 783.08C398.037 783.08 396.544 783.763 395.477 785.128C394.41 786.451 393.877 788.243 393.877 790.504C393.877 792.68 394.346 794.429 395.285 795.752C396.224 797.075 397.781 797.736 399.957 797.736C402.005 797.736 403.498 797.075 404.437 795.752C405.376 794.429 405.845 792.68 405.845 790.504ZM403.477 808.808H397.141C395.904 808.808 394.816 809.384 393.877 810.536C392.938 811.688 392.469 812.989 392.469 814.44C392.469 816.317 393.088 817.747 394.325 818.728C395.562 819.709 397.248 820.2 399.381 820.2C403.221 820.2 405.93 819.624 407.509 818.472C409.088 817.363 409.877 815.784 409.877 813.736C409.877 812.157 409.429 810.941 408.533 810.088C407.637 809.235 405.952 808.808 403.477 808.808ZM387.029 804.136C387.029 803.411 387.264 802.771 387.733 802.216C388.202 801.661 388.778 801.171 389.461 800.744C390.101 800.36 390.784 800.061 391.509 799.848C392.234 799.592 392.832 799.4 393.301 799.272C392.746 799.016 392.106 798.675 391.381 798.248C390.698 797.779 390.037 797.203 389.397 796.52C388.757 795.837 388.224 795.048 387.797 794.152C387.37 793.256 387.157 792.232 387.157 791.08C387.157 787.752 388.33 785.128 390.677 783.208C393.066 781.245 396.117 780.264 399.829 780.264C401.28 780.307 402.474 780.456 403.413 780.712C404.352 780.968 405.376 781.373 406.485 781.928C406.954 782.141 407.445 782.312 407.957 782.44C408.469 782.568 408.981 782.611 409.493 782.568H414.741C415.253 782.568 415.658 782.696 415.957 782.952C416.256 783.208 416.405 783.677 416.405 784.36C416.405 785.085 416.213 785.576 415.829 785.832C415.445 786.088 415.061 786.216 414.677 786.216H411.733C411.477 786.216 411.349 786.259 411.349 786.344C411.349 786.429 411.392 786.515 411.477 786.6C411.69 787.112 411.882 787.773 412.053 788.584C412.266 789.395 412.373 790.12 412.373 790.76C412.373 791.997 412.16 793.192 411.733 794.344C411.349 795.496 410.688 796.52 409.749 797.416C408.768 798.312 407.509 799.037 405.973 799.592C404.437 800.104 402.517 800.36 400.213 800.36C398.549 800.36 397.056 800.552 395.733 800.936C394.41 801.32 393.749 801.768 393.749 802.28C393.749 802.749 393.941 803.155 394.325 803.496C394.709 803.795 395.968 803.944 398.101 803.944H405.077C408.917 803.944 411.669 804.669 413.333 806.12C414.997 807.528 415.829 809.512 415.829 812.072C415.829 815.357 414.165 818.088 410.837 820.264C407.509 822.44 402.432 823.528 395.605 823.528C391.936 823.528 389.418 822.931 388.053 821.736C386.688 820.541 386.005 818.792 386.005 816.488C386.005 814.739 386.602 813.203 387.797 811.88C389.034 810.6 390.421 809.469 391.957 808.488C390.293 808.104 389.034 807.507 388.181 806.696C387.37 805.885 386.986 805.032 387.029 804.136Z" fill="black"/>
<path d="M439.563 796.52C438.07 797.075 436.342 797.8 434.379 798.696C432.417 799.549 430.859 800.445 429.707 801.384C429.323 801.683 429.025 802.173 428.811 802.856C428.598 803.496 428.491 804.2 428.491 804.968C428.491 806.248 428.79 807.208 429.387 807.848C430.027 808.488 431.009 808.808 432.331 808.808C433.739 808.808 435.147 808.381 436.555 807.528C438.006 806.632 439.094 805.843 439.819 805.16C440.033 804.989 440.161 804.819 440.203 804.648C440.289 804.435 440.331 804.072 440.331 803.56V797.16C440.331 796.861 440.267 796.669 440.139 796.584C440.011 796.456 439.819 796.435 439.563 796.52ZM425.163 799.784C425.846 799.357 426.742 798.888 427.851 798.376C429.003 797.864 430.219 797.331 431.499 796.776C432.822 796.221 434.166 795.688 435.531 795.176C436.897 794.664 438.219 794.173 439.499 793.704C439.755 793.619 439.947 793.491 440.075 793.32C440.246 793.149 440.331 792.829 440.331 792.36V788.136C440.331 786.6 439.862 785.491 438.923 784.808C437.985 784.125 436.747 783.784 435.211 783.784C433.035 783.784 431.435 784.381 430.411 785.576C429.43 786.771 428.939 788.008 428.939 789.288C429.067 790.227 428.811 790.931 428.171 791.4C427.531 791.827 426.699 792.189 425.675 792.488C424.31 792.872 423.307 792.936 422.667 792.68C422.027 792.381 421.707 791.869 421.707 791.144C421.665 790.205 421.814 789.245 422.155 788.264C422.497 787.24 423.03 786.344 423.755 785.576C425.334 783.955 427.51 782.696 430.283 781.8C433.057 780.861 435.851 780.392 438.667 780.392C441.355 780.392 443.361 780.989 444.683 782.184C446.006 783.379 446.667 785.064 446.667 787.24V804.456C446.667 805.523 446.774 806.376 446.987 807.016C447.201 807.656 447.755 807.976 448.651 807.976C448.993 807.976 449.355 807.933 449.739 807.848C450.123 807.72 450.507 807.4 450.891 806.888C451.275 806.333 451.681 806.163 452.107 806.376C452.577 806.589 452.747 807.08 452.619 807.848C452.321 809.043 451.595 810.216 450.443 811.368C449.334 812.52 447.862 813.096 446.027 813.096C444.321 813.096 443.083 812.584 442.315 811.56C441.547 810.579 441.035 809.555 440.779 808.488C440.737 808.317 440.651 808.232 440.523 808.232C440.438 808.189 440.331 808.232 440.203 808.36C438.753 809.427 437.025 810.536 435.019 811.688C433.057 812.84 430.966 813.416 428.747 813.416C426.315 813.416 424.459 812.819 423.179 811.624C421.899 810.429 421.259 808.808 421.259 806.76C421.259 805.352 421.601 804.051 422.283 802.856C423.009 801.619 423.969 800.595 425.163 799.784Z" fill="black"/>
<path d="M466.099 806.952C466.142 807.891 466.248 808.573 466.419 809C466.59 809.384 466.803 809.64 467.059 809.768C467.443 809.939 467.827 810.067 468.211 810.152C468.638 810.237 469.064 810.28 469.491 810.28C469.918 810.323 470.259 810.408 470.515 810.536C470.771 810.664 470.899 811.005 470.899 811.56C470.899 811.901 470.856 812.136 470.771 812.264C470.728 812.435 470.643 812.541 470.515 812.584C470.387 812.669 470.216 812.691 470.003 812.648C469.832 812.648 469.64 812.648 469.427 812.648C469.299 812.648 468.936 812.648 468.339 812.648C467.784 812.648 467.144 812.627 466.419 812.584C465.694 812.584 464.99 812.563 464.307 812.52C463.624 812.52 463.134 812.52 462.835 812.52C462.451 812.52 461.896 812.52 461.171 812.52C460.488 812.563 459.784 812.584 459.059 812.584C458.291 812.627 457.608 812.648 457.011 812.648C456.456 812.648 456.136 812.648 456.051 812.648C455.795 812.648 455.582 812.648 455.411 812.648C455.24 812.691 455.091 812.669 454.963 812.584C454.835 812.541 454.75 812.435 454.707 812.264C454.664 812.136 454.643 811.901 454.643 811.56C454.643 811.005 454.75 810.664 454.963 810.536C455.219 810.408 455.582 810.323 456.051 810.28C456.435 810.28 456.883 810.237 457.395 810.152C457.907 810.067 458.355 809.939 458.739 809.768C458.995 809.64 459.23 809.384 459.443 809C459.699 808.573 459.827 807.891 459.827 806.952V767.72C459.827 767.208 459.592 766.867 459.123 766.696C458.654 766.483 458.056 766.312 457.331 766.184C457.032 766.184 456.776 766.163 456.563 766.12C456.392 766.077 456.243 766.035 456.115 765.992C455.987 765.907 455.88 765.821 455.795 765.736C455.752 765.608 455.731 765.416 455.731 765.16C455.731 764.989 455.752 764.84 455.795 764.712C455.838 764.584 455.923 764.477 456.051 764.392C456.136 764.307 456.264 764.243 456.435 764.2C456.648 764.115 456.883 764.029 457.139 763.944C458.334 763.603 459.678 763.155 461.171 762.6C462.664 762.003 463.987 761.405 465.139 760.808C465.523 760.595 465.822 760.595 466.035 760.808C466.291 760.979 466.419 761.213 466.419 761.512C466.291 762.536 466.206 763.603 466.163 764.712C466.12 765.779 466.099 766.824 466.099 767.848V806.952Z" fill="black"/>
<path d="M892.728 809C893.624 809 894.541 808.851 895.48 808.552C896.419 808.211 897.272 807.72 898.04 807.08C898.808 806.44 899.448 805.693 899.96 804.84C900.472 803.944 900.749 802.941 900.792 801.832C900.792 800.467 900.493 799.251 899.896 798.184C899.299 797.075 898.509 796.072 897.528 795.176C896.589 794.323 895.523 793.555 894.328 792.872C893.133 792.189 891.96 791.549 890.808 790.952V791.016C889.059 790.205 887.501 789.416 886.136 788.648C884.771 787.88 883.619 787.027 882.68 786.088C881.741 785.149 881.016 784.083 880.504 782.888C880.035 781.651 879.8 780.157 879.8 778.408C879.8 774.568 881.059 771.411 883.576 768.936C886.093 766.461 889.741 765.224 894.52 765.224C896.312 765.352 897.912 765.565 899.32 765.864C900.728 766.163 902.157 766.611 903.608 767.208C903.907 767.336 904.12 767.485 904.248 767.656C904.419 767.827 904.525 768.04 904.568 768.296C904.696 769.064 904.781 769.811 904.824 770.536C904.909 771.219 904.995 771.88 905.08 772.52C905.123 773.203 905.165 773.885 905.208 774.568C905.251 775.251 905.315 775.955 905.4 776.68C905.4 777.064 905.336 777.363 905.208 777.576C905.123 777.789 904.824 777.917 904.312 777.96C903.843 778.045 903.523 778.045 903.352 777.96C903.181 777.832 903.032 777.512 902.904 777C902.648 776.104 902.243 775.059 901.688 773.864C901.133 772.669 900.536 771.752 899.896 771.112C899.128 770.344 898.211 769.789 897.144 769.448C896.12 769.064 894.968 768.872 893.688 768.872C891 768.872 889.016 769.512 887.736 770.792C886.499 772.029 885.88 773.416 885.88 774.952C885.88 776.275 886.115 777.405 886.584 778.344C887.096 779.283 887.8 780.115 888.696 780.84C889.592 781.608 890.637 782.291 891.832 782.888C893.027 783.485 894.328 784.104 895.736 784.744C897.059 785.427 898.381 786.152 899.704 786.92C901.069 787.688 902.285 788.584 903.352 789.608C904.419 790.632 905.293 791.805 905.976 793.128C906.659 794.451 907 796.008 907 797.8C907 802.408 905.613 806.099 902.84 808.872C900.109 811.603 896.397 812.968 891.704 812.968C889.059 812.968 886.755 812.648 884.792 812.008C882.872 811.368 881.123 810.472 879.544 809.32C879.288 809.192 879.096 809.043 878.968 808.872C878.84 808.659 878.776 808.403 878.776 808.104C878.52 806.611 878.328 805.181 878.2 803.816C878.072 802.408 878.008 800.936 878.008 799.4C878.008 799.016 878.072 798.739 878.2 798.568C878.328 798.355 878.669 798.248 879.224 798.248C879.693 798.248 879.992 798.312 880.12 798.44C880.291 798.568 880.44 798.888 880.568 799.4C880.696 800.339 880.952 801.384 881.336 802.536C881.763 803.645 882.253 804.584 882.808 805.352C883.491 806.376 884.707 807.251 886.456 807.976C888.205 808.659 890.296 809 892.728 809Z" fill="black"/>
<path d="M930.438 796.52C928.945 797.075 927.217 797.8 925.254 798.696C923.292 799.549 921.734 800.445 920.582 801.384C920.198 801.683 919.9 802.173 919.686 802.856C919.473 803.496 919.366 804.2 919.366 804.968C919.366 806.248 919.665 807.208 920.262 807.848C920.902 808.488 921.884 808.808 923.206 808.808C924.614 808.808 926.022 808.381 927.43 807.528C928.881 806.632 929.969 805.843 930.694 805.16C930.908 804.989 931.036 804.819 931.078 804.648C931.164 804.435 931.206 804.072 931.206 803.56V797.16C931.206 796.861 931.142 796.669 931.014 796.584C930.886 796.456 930.694 796.435 930.438 796.52ZM916.038 799.784C916.721 799.357 917.617 798.888 918.727 798.376C919.879 797.864 921.094 797.331 922.374 796.776C923.697 796.221 925.041 795.688 926.406 795.176C927.772 794.664 929.094 794.173 930.374 793.704C930.63 793.619 930.823 793.491 930.951 793.32C931.121 793.149 931.206 792.829 931.206 792.36V788.136C931.206 786.6 930.737 785.491 929.798 784.808C928.86 784.125 927.622 783.784 926.086 783.784C923.91 783.784 922.31 784.381 921.286 785.576C920.305 786.771 919.814 788.008 919.814 789.288C919.942 790.227 919.686 790.931 919.046 791.4C918.406 791.827 917.574 792.189 916.55 792.488C915.185 792.872 914.182 792.936 913.542 792.68C912.902 792.381 912.582 791.869 912.582 791.144C912.54 790.205 912.689 789.245 913.03 788.264C913.372 787.24 913.905 786.344 914.63 785.576C916.209 783.955 918.385 782.696 921.158 781.8C923.932 780.861 926.726 780.392 929.542 780.392C932.23 780.392 934.236 780.989 935.558 782.184C936.881 783.379 937.542 785.064 937.542 787.24V804.456C937.542 805.523 937.649 806.376 937.862 807.016C938.076 807.656 938.63 807.976 939.526 807.976C939.868 807.976 940.231 807.933 940.615 807.848C940.999 807.72 941.382 807.4 941.766 806.888C942.15 806.333 942.556 806.163 942.982 806.376C943.452 806.589 943.623 807.08 943.495 807.848C943.196 809.043 942.47 810.216 941.318 811.368C940.209 812.52 938.737 813.096 936.902 813.096C935.196 813.096 933.958 812.584 933.19 811.56C932.422 810.579 931.91 809.555 931.654 808.488C931.612 808.317 931.526 808.232 931.398 808.232C931.313 808.189 931.206 808.232 931.078 808.36C929.628 809.427 927.9 810.536 925.894 811.688C923.932 812.84 921.841 813.416 919.622 813.416C917.19 813.416 915.334 812.819 914.054 811.624C912.774 810.429 912.134 808.808 912.134 806.76C912.134 805.352 912.476 804.051 913.158 802.856C913.884 801.619 914.844 800.595 916.038 799.784Z" fill="black"/>
<path d="M949.742 766.184C949.443 766.184 949.187 766.163 948.974 766.12C948.803 766.077 948.654 766.035 948.526 765.992C948.398 765.907 948.291 765.821 948.206 765.736C948.163 765.608 948.142 765.416 948.142 765.16C948.142 764.989 948.163 764.84 948.206 764.712C948.249 764.584 948.334 764.477 948.462 764.392C948.547 764.307 948.675 764.243 948.846 764.2C949.059 764.115 949.294 764.029 949.55 763.944C950.745 763.603 952.089 763.155 953.582 762.6C955.075 762.003 956.398 761.405 957.55 760.808C957.934 760.595 958.233 760.595 958.446 760.808C958.702 760.979 958.83 761.213 958.83 761.512C958.702 762.536 958.617 763.603 958.574 764.712C958.531 765.779 958.51 766.824 958.51 767.848V784.552C959.747 783.187 961.155 782.163 962.734 781.48C964.313 780.797 965.955 780.456 967.662 780.456C970.947 780.456 973.593 781.331 975.598 783.08C977.603 784.787 978.606 787.261 978.606 790.504V806.952C978.606 807.891 978.713 808.573 978.926 809C979.182 809.384 979.438 809.64 979.694 809.768C980.078 809.939 980.505 810.067 980.974 810.152C981.486 810.237 981.955 810.28 982.382 810.28C982.809 810.323 983.15 810.408 983.406 810.536C983.662 810.664 983.79 811.005 983.79 811.56C983.79 811.901 983.747 812.136 983.662 812.264C983.619 812.435 983.534 812.541 983.406 812.584C983.278 812.669 983.129 812.691 982.958 812.648C982.787 812.648 982.595 812.648 982.382 812.648C982.254 812.648 981.891 812.648 981.294 812.648C980.739 812.648 980.099 812.627 979.374 812.584C978.606 812.584 977.859 812.563 977.134 812.52C976.451 812.52 975.939 812.52 975.598 812.52C975.257 812.52 974.745 812.52 974.062 812.52C973.379 812.563 972.675 812.584 971.95 812.584C971.267 812.627 970.627 812.648 970.03 812.648C969.475 812.648 969.155 812.648 969.07 812.648C968.814 812.648 968.579 812.648 968.366 812.648C968.195 812.691 968.046 812.669 967.918 812.584C967.79 812.541 967.705 812.435 967.662 812.264C967.619 812.136 967.598 811.901 967.598 811.56C967.598 811.005 967.705 810.664 967.918 810.536C968.174 810.408 968.537 810.323 969.006 810.28C969.39 810.28 969.795 810.237 970.222 810.152C970.649 810.067 971.054 809.939 971.438 809.768C971.694 809.64 971.886 809.384 972.014 809C972.185 808.573 972.27 807.891 972.27 806.952V791.976C972.27 789.416 971.715 787.581 970.606 786.472C969.539 785.32 967.875 784.744 965.614 784.744C964.206 784.744 962.926 785.021 961.774 785.576C960.622 786.131 959.705 786.963 959.022 788.072C958.894 788.285 958.766 788.605 958.638 789.032C958.51 789.416 958.446 789.757 958.446 790.056V806.952C958.489 807.891 958.595 808.573 958.766 809C958.937 809.384 959.15 809.64 959.406 809.768C959.79 809.939 960.174 810.067 960.558 810.152C960.985 810.237 961.411 810.28 961.838 810.28C962.265 810.323 962.606 810.408 962.862 810.536C963.118 810.664 963.246 811.005 963.246 811.56C963.246 811.901 963.203 812.136 963.118 812.264C963.075 812.435 962.99 812.541 962.862 812.584C962.734 812.669 962.563 812.691 962.35 812.648C962.179 812.648 961.987 812.648 961.774 812.648C961.646 812.648 961.283 812.648 960.686 812.648C960.131 812.648 959.513 812.627 958.83 812.584C958.105 812.584 957.401 812.563 956.718 812.52C956.035 812.52 955.545 812.52 955.246 812.52C954.862 812.52 954.307 812.52 953.582 812.52C952.899 812.563 952.195 812.584 951.47 812.584C950.702 812.627 950.019 812.648 949.422 812.648C948.867 812.648 948.547 812.648 948.462 812.648C948.206 812.648 947.993 812.648 947.822 812.648C947.651 812.691 947.502 812.669 947.374 812.584C947.246 812.541 947.161 812.435 947.118 812.264C947.075 812.136 947.054 811.901 947.054 811.56C947.054 811.005 947.161 810.664 947.374 810.536C947.63 810.408 947.993 810.323 948.462 810.28C948.846 810.28 949.294 810.237 949.806 810.152C950.318 810.067 950.766 809.939 951.15 809.768C951.406 809.64 951.641 809.384 951.854 809C952.11 808.573 952.238 807.891 952.238 806.952V767.72C952.238 767.208 952.003 766.867 951.534 766.696C951.065 766.483 950.467 766.312 949.742 766.184Z" fill="black"/>
<path d="M1006.06 796.52C1004.57 797.075 1002.84 797.8 1000.88 798.696C998.917 799.549 997.359 800.445 996.207 801.384C995.823 801.683 995.525 802.173 995.311 802.856C995.098 803.496 994.991 804.2 994.991 804.968C994.991 806.248 995.29 807.208 995.887 807.848C996.527 808.488 997.509 808.808 998.831 808.808C1000.24 808.808 1001.65 808.381 1003.06 807.528C1004.51 806.632 1005.59 805.843 1006.32 805.16C1006.53 804.989 1006.66 804.819 1006.7 804.648C1006.79 804.435 1006.83 804.072 1006.83 803.56V797.16C1006.83 796.861 1006.77 796.669 1006.64 796.584C1006.51 796.456 1006.32 796.435 1006.06 796.52ZM991.663 799.784C992.346 799.357 993.242 798.888 994.352 798.376C995.504 797.864 996.719 797.331 997.999 796.776C999.322 796.221 1000.67 795.688 1002.03 795.176C1003.4 794.664 1004.72 794.173 1006 793.704C1006.26 793.619 1006.45 793.491 1006.58 793.32C1006.75 793.149 1006.83 792.829 1006.83 792.36V788.136C1006.83 786.6 1006.36 785.491 1005.42 784.808C1004.48 784.125 1003.25 783.784 1001.71 783.784C999.535 783.784 997.935 784.381 996.911 785.576C995.93 786.771 995.439 788.008 995.439 789.288C995.567 790.227 995.311 790.931 994.671 791.4C994.031 791.827 993.199 792.189 992.175 792.488C990.81 792.872 989.807 792.936 989.167 792.68C988.527 792.381 988.207 791.869 988.207 791.144C988.165 790.205 988.314 789.245 988.655 788.264C988.997 787.24 989.53 786.344 990.255 785.576C991.834 783.955 994.01 782.696 996.783 781.8C999.557 780.861 1002.35 780.392 1005.17 780.392C1007.86 780.392 1009.86 780.989 1011.18 782.184C1012.51 783.379 1013.17 785.064 1013.17 787.24V804.456C1013.17 805.523 1013.27 806.376 1013.49 807.016C1013.7 807.656 1014.26 807.976 1015.15 807.976C1015.49 807.976 1015.86 807.933 1016.24 807.848C1016.62 807.72 1017.01 807.4 1017.39 806.888C1017.78 806.333 1018.18 806.163 1018.61 806.376C1019.08 806.589 1019.25 807.08 1019.12 807.848C1018.82 809.043 1018.1 810.216 1016.94 811.368C1015.83 812.52 1014.36 813.096 1012.53 813.096C1010.82 813.096 1009.58 812.584 1008.82 811.56C1008.05 810.579 1007.54 809.555 1007.28 808.488C1007.24 808.317 1007.15 808.232 1007.02 808.232C1006.94 808.189 1006.83 808.232 1006.7 808.36C1005.25 809.427 1003.52 810.536 1001.52 811.688C999.557 812.84 997.466 813.416 995.247 813.416C992.815 813.416 990.959 812.819 989.679 811.624C988.399 810.429 987.759 808.808 987.759 806.76C987.759 805.352 988.101 804.051 988.783 802.856C989.509 801.619 990.469 800.595 991.663 799.784Z" fill="black"/>
<path d="M1033.3 784.808C1034.2 784.04 1035.44 783.208 1037.01 782.312C1038.59 781.373 1040.21 780.904 1041.88 780.904C1043.37 780.904 1044.42 781.224 1045.01 781.864C1045.65 782.461 1046 783.4 1046.04 784.68C1046 786.003 1045.57 786.963 1044.76 787.56C1043.95 788.157 1042.9 788.456 1041.62 788.456C1040.98 788.456 1040.43 788.349 1039.96 788.136C1039.49 787.923 1039.08 787.688 1038.74 787.432C1038.36 787.176 1037.93 786.963 1037.46 786.792C1036.99 786.621 1036.5 786.536 1035.99 786.536C1035.05 786.664 1034.35 787.133 1033.88 787.944C1033.45 788.712 1033.24 789.565 1033.24 790.504V807.08C1033.28 808.019 1033.39 808.68 1033.56 809.064C1033.73 809.491 1033.94 809.768 1034.2 809.896C1034.58 810.067 1034.97 810.195 1035.35 810.28C1035.78 810.365 1036.2 810.408 1036.63 810.408C1037.06 810.451 1037.4 810.536 1037.65 810.664C1037.91 810.792 1038.04 811.133 1038.04 811.688C1038.04 812.029 1038 812.264 1037.91 812.392C1037.87 812.563 1037.78 812.669 1037.65 812.712C1037.53 812.797 1037.36 812.819 1037.14 812.776C1036.97 812.776 1036.78 812.776 1036.57 812.776C1036.44 812.776 1036.08 812.776 1035.48 812.776C1034.92 812.776 1034.31 812.755 1033.62 812.712C1032.9 812.712 1032.19 812.691 1031.51 812.648C1030.83 812.648 1030.34 812.648 1030.04 812.648C1029.66 812.648 1029.1 812.648 1028.38 812.648C1027.69 812.691 1026.99 812.712 1026.26 812.712C1025.5 812.755 1024.81 812.776 1024.21 812.776C1023.66 812.776 1023.34 812.776 1023.25 812.776C1023 812.776 1022.79 812.776 1022.61 812.776C1022.44 812.819 1022.29 812.797 1022.17 812.712C1022.04 812.669 1021.95 812.563 1021.91 812.392C1021.87 812.264 1021.85 812.029 1021.85 811.688C1021.85 811.133 1021.95 810.792 1022.17 810.664C1022.42 810.536 1022.79 810.451 1023.25 810.408C1023.64 810.408 1024.09 810.365 1024.6 810.28C1025.11 810.195 1025.56 810.067 1025.94 809.896C1026.2 809.768 1026.43 809.491 1026.65 809.064C1026.9 808.68 1027.03 808.019 1027.03 807.08V787.752C1026.99 787.24 1026.73 786.899 1026.26 786.728C1025.79 786.515 1025.2 786.344 1024.47 786.216C1024.17 786.216 1023.92 786.195 1023.7 786.152C1023.53 786.109 1023.38 786.067 1023.25 786.024C1023.13 785.939 1023.02 785.853 1022.93 785.768C1022.89 785.64 1022.87 785.448 1022.87 785.192C1022.87 785.021 1022.89 784.872 1022.93 784.744C1022.98 784.616 1023.06 784.509 1023.19 784.424C1023.28 784.339 1023.4 784.275 1023.57 784.232C1023.79 784.147 1024.02 784.061 1024.28 783.976C1025.47 783.635 1026.82 783.187 1028.31 782.632C1029.8 782.035 1031.13 781.437 1032.28 780.84C1032.66 780.627 1032.96 780.627 1033.17 780.84C1033.43 781.011 1033.56 781.245 1033.56 781.544C1033.47 782.184 1033.41 782.739 1033.37 783.208C1033.32 783.635 1033.3 784.168 1033.3 784.808Z" fill="black"/>
<path d="M1067.75 796.52C1066.26 797.075 1064.53 797.8 1062.57 798.696C1060.6 799.549 1059.05 800.445 1057.89 801.384C1057.51 801.683 1057.21 802.173 1057 802.856C1056.79 803.496 1056.68 804.2 1056.68 804.968C1056.68 806.248 1056.98 807.208 1057.57 807.848C1058.21 808.488 1059.2 808.808 1060.52 808.808C1061.93 808.808 1063.33 808.381 1064.74 807.528C1066.19 806.632 1067.28 805.843 1068.01 805.16C1068.22 804.989 1068.35 804.819 1068.39 804.648C1068.48 804.435 1068.52 804.072 1068.52 803.56V797.16C1068.52 796.861 1068.45 796.669 1068.33 796.584C1068.2 796.456 1068.01 796.435 1067.75 796.52ZM1053.35 799.784C1054.03 799.357 1054.93 798.888 1056.04 798.376C1057.19 797.864 1058.41 797.331 1059.69 796.776C1061.01 796.221 1062.35 795.688 1063.72 795.176C1065.08 794.664 1066.41 794.173 1067.69 793.704C1067.94 793.619 1068.14 793.491 1068.26 793.32C1068.43 793.149 1068.52 792.829 1068.52 792.36V788.136C1068.52 786.6 1068.05 785.491 1067.11 784.808C1066.17 784.125 1064.93 783.784 1063.4 783.784C1061.22 783.784 1059.62 784.381 1058.6 785.576C1057.62 786.771 1057.13 788.008 1057.13 789.288C1057.25 790.227 1057 790.931 1056.36 791.4C1055.72 791.827 1054.89 792.189 1053.86 792.488C1052.5 792.872 1051.49 792.936 1050.85 792.68C1050.21 792.381 1049.89 791.869 1049.89 791.144C1049.85 790.205 1050 789.245 1050.34 788.264C1050.68 787.24 1051.22 786.344 1051.94 785.576C1053.52 783.955 1055.7 782.696 1058.47 781.8C1061.24 780.861 1064.04 780.392 1066.85 780.392C1069.54 780.392 1071.55 780.989 1072.87 782.184C1074.19 783.379 1074.85 785.064 1074.85 787.24V804.456C1074.85 805.523 1074.96 806.376 1075.17 807.016C1075.39 807.656 1075.94 807.976 1076.84 807.976C1077.18 807.976 1077.54 807.933 1077.93 807.848C1078.31 807.72 1078.69 807.4 1079.08 806.888C1079.46 806.333 1079.87 806.163 1080.29 806.376C1080.76 806.589 1080.94 807.08 1080.81 807.848C1080.51 809.043 1079.78 810.216 1078.63 811.368C1077.52 812.52 1076.05 813.096 1074.21 813.096C1072.51 813.096 1071.27 812.584 1070.5 811.56C1069.73 810.579 1069.22 809.555 1068.97 808.488C1068.92 808.317 1068.84 808.232 1068.71 808.232C1068.63 808.189 1068.52 808.232 1068.39 808.36C1066.94 809.427 1065.21 810.536 1063.21 811.688C1061.24 812.84 1059.15 813.416 1056.93 813.416C1054.5 813.416 1052.65 812.819 1051.37 811.624C1050.09 810.429 1049.45 808.808 1049.45 806.76C1049.45 805.352 1049.79 804.051 1050.47 802.856C1051.2 801.619 1052.16 800.595 1053.35 799.784Z" fill="black"/>
<path d="M685.528 528.421V555.069H715.607C720.953 555.069 726.176 556.684 730.593 559.683L756.438 577.256C757.063 577.683 757.809 577.911 758.57 577.911H821.043C824.072 577.911 826.978 579.114 829.12 581.256C831.262 583.398 832.465 586.303 832.465 589.332C832.465 592.361 831.262 595.266 829.12 597.408C826.978 599.55 824.072 600.753 821.043 600.753H797.01L848.274 717.702C849.302 720.04 849.516 722.656 848.881 725.13C848.246 727.604 846.799 729.793 844.771 731.346C843.248 732.473 841.679 733.524 840.05 734.483C836.187 736.788 832.166 738.819 828.018 740.559C814.243 746.32 799.454 749.266 784.522 749.224C769.596 749.271 754.812 746.33 741.041 740.574C736.89 738.833 732.87 736.798 729.009 734.483C727.393 733.548 725.832 732.521 724.334 731.407L724.257 731.346C722.23 729.793 720.783 727.604 720.148 725.13C719.513 722.656 719.726 720.04 720.755 717.702L772.049 600.753H758.555C753.209 600.753 747.986 599.139 743.569 596.139L717.724 578.566C717.096 578.136 716.352 577.908 715.592 577.911H685.528V798.714H753.864C756.894 798.714 759.799 799.917 761.941 802.059C764.083 804.201 765.287 807.106 765.287 810.135C765.287 813.164 764.083 816.069 761.941 818.211C759.799 820.353 756.894 821.556 753.864 821.556H594.347C591.318 821.556 588.412 820.353 586.27 818.211C584.128 816.069 582.925 813.164 582.925 810.135C582.925 807.106 584.128 804.201 586.27 802.059C588.412 799.917 591.318 798.714 594.347 798.714H662.683V577.911H632.604C631.844 577.911 631.101 578.139 630.472 578.566L604.642 596.139C600.226 599.139 595.002 600.753 589.656 600.753H576.163L627.457 717.702C628.449 719.974 628.676 722.508 628.102 724.92C627.527 727.332 626.184 729.491 624.274 731.072C623.055 732.062 621.837 732.991 619.552 734.468C615.701 736.962 611.669 739.166 607.49 741.062C593.735 747.31 578.798 750.53 563.689 750.503C548.581 750.535 533.642 747.315 519.888 741.062C515.71 739.166 511.678 736.962 507.826 734.468C506.198 733.433 504.627 732.309 503.12 731.103C501.225 729.504 499.893 727.34 499.317 724.928C498.741 722.517 498.953 719.985 499.922 717.702L551.201 600.753H527.183C524.154 600.753 521.249 599.55 519.107 597.408C516.965 595.266 515.761 592.361 515.761 589.332C515.761 586.303 516.965 583.398 519.107 581.256C521.249 579.114 524.154 577.911 527.183 577.911H589.656C590.418 577.911 591.164 577.683 591.804 577.256L617.618 559.683C622.035 556.668 627.274 555.069 632.62 555.069H662.683V528.421C662.683 525.392 663.887 522.487 666.029 520.345C668.171 518.203 671.076 517 674.106 517C677.135 517 680.04 518.203 682.182 520.345C684.325 522.487 685.528 525.392 685.528 528.421ZM524.747 717.976C536.733 724.357 550.11 727.678 563.689 727.646C577.269 727.678 590.646 724.357 602.632 717.976L563.689 629.198L524.747 717.976ZM745.732 717.611C746.98 718.22 748.382 718.875 749.92 719.53C757.992 722.925 769.795 726.382 784.522 726.382C797.948 726.42 811.209 723.421 823.312 717.611L784.522 629.183L745.732 717.611Z" fill="#E4A951"/>
</svg>
